<mxfile host="www.draw.io" modified="2019-12-02T14:06:56.115Z" agent="Mozilla/5.0 (Windows NT 10.0; Win64; x64) AppleWebKit/537.36 (KHTML, like Gecko) Chrome/78.0.3904.108 Safari/537.36" etag="0B8pMQFVGiCm4zbSwFQe" version="12.3.4" type="github" pages="1">
  <diagram id="TKZskEhIjhmOWJFL-vfO" name="Page-1">
    <mxGraphModel dx="1408" dy="748" grid="1" gridSize="10" guides="1" tooltips="1" connect="1" arrows="1" fold="1" page="1" pageScale="1" pageWidth="1169" pageHeight="827" math="0" shadow="0">
      <root>
        <mxCell id="0"/>
        <mxCell id="1" parent="0"/>
        <mxCell id="qZsz3Cq-qK-R4G_jub2Z-1" value="" style="ellipse;whiteSpace=wrap;html=1;rotation=65;fillColor=#f8cecc;strokeColor=#b85450;opacity=50;" vertex="1" parent="1">
          <mxGeometry x="232" y="298" width="300" height="90" as="geometry"/>
        </mxCell>
        <mxCell id="qZsz3Cq-qK-R4G_jub2Z-2" value="" style="ellipse;whiteSpace=wrap;html=1;rotation=100;fillColor=#f8cecc;strokeColor=#b85450;opacity=50;" vertex="1" parent="1">
          <mxGeometry x="312" y="287" width="300" height="90" as="geometry"/>
        </mxCell>
        <mxCell id="qZsz3Cq-qK-R4G_jub2Z-3" value="" style="ellipse;whiteSpace=wrap;html=1;aspect=fixed;opacity=50;" vertex="1" parent="1">
          <mxGeometry x="400" y="420" width="80" height="80" as="geometry"/>
        </mxCell>
        <mxCell id="qZsz3Cq-qK-R4G_jub2Z-5" value="" style="verticalLabelPosition=bottom;verticalAlign=top;html=1;shape=mxgraph.basic.donut;dx=25;opacity=50;fillColor=#fff2cc;strokeColor=#d6b656;" vertex="1" parent="1">
          <mxGeometry x="240" y="215" width="400" height="397" as="geometry"/>
        </mxCell>
      </root>
    </mxGraphModel>
  </diagram>
</mxfile>
